<?xml version="1.0" standalone="no"?>
<!DOCTYPE svg PUBLIC "-//W3C//DTD SVG 20010904//EN"
 "http://www.w3.org/TR/2001/REC-SVG-20010904/DTD/svg10.dtd">
<svg version="1.0" xmlns="http://www.w3.org/2000/svg"
 width="880.000000pt" height="880.000000pt" viewBox="0 0 880.000000 880.000000"
 preserveAspectRatio="xMidYMid meet">
<metadata>
Created by potrace 1.14, written by Peter Selinger 2001-2017
</metadata>
<g transform="translate(0.000000,880.000000) scale(0.100000,-0.100000)"
fill="#000000" stroke="none">
<path d="M370 8421 c-89 -27 -147 -60 -209 -120 -79 -75 -110 -126 -149 -246
-4 -11 -8 -573 -9 -1250 -1 -1046 0 -1238 13 -1284 16 -61 42 -120 61 -139 7
-7 13 -18 13 -23 0 -12 114 -129 125 -129 4 0 30 -13 56 -30 27 -16 49 -28 49
-25 0 2 17 -4 37 -13 35 -16 134 -17 1258 -19 757 -1 1237 2 1265 8 25 5 54
11 65 13 26 4 96 38 113 54 7 6 18 12 23 12 21 0 136 129 161 181 59 119 57
57 57 1375 1 1322 3 1264 -57 1384 -35 70 -141 177 -211 213 -114 59 -82 57
-1400 56 -1092 -1 -1211 -3 -1261 -18z m736 -501 c27 0 89 0 137 1 48 1 90 -1
93 -4 3 -2 21 -1 40 3 20 5 34 4 34 -2 0 -5 5 -6 11 -3 9 6 256 10 284 4 6 -1
13 -1 17 0 14 2 133 3 143 1 6 -1 30 -1 55 -1 107 2 176 2 185 1 6 -1 13 -2
17 -1 7 1 104 1 128 0 8 0 24 1 35 2 25 2 100 -9 129 -20 11 -5 25 -9 29 -9
30 -1 131 -65 183 -116 56 -56 117 -150 129 -201 2 -11 9 -38 14 -59 12 -48
17 -163 8 -172 -4 -4 -4 -11 -1 -16 5 -8 8 -330 4 -353 -1 -6 -2 -14 -1 -20 1
-5 2 -44 1 -85 -1 -94 -1 -63 0 -292 1 -108 -1 -202 -4 -207 -4 -5 -2 -12 2
-15 8 -5 9 -29 2 -61 -1 -5 -2 -14 -1 -20 4 -17 2 -117 -3 -165 -6 -65 -15
-97 -48 -167 -30 -63 -131 -183 -155 -183 -7 0 -13 -4 -13 -8 0 -13 -98 -58
-163 -75 -50 -13 -161 -15 -760 -13 -386 1 -715 6 -731 10 -16 4 -39 12 -50
18 -12 6 -22 11 -24 10 -9 -7 -108 56 -149 95 -94 91 -140 178 -158 298 -3 22
-5 222 -5 445 1 223 1 412 1 420 -1 8 -1 44 0 80 0 36 0 72 0 80 -1 8 -1 42 0
75 0 33 0 67 0 75 0 8 0 56 -1 105 -1 106 26 222 67 293 33 58 138 164 181
183 18 8 32 17 32 21 0 5 3 7 8 6 4 -2 27 5 52 14 40 16 176 38 191 32 3 -2
27 -3 55 -4z"/>
<path d="M4120 8388 c-1 -29 -1 -891 -1 -1915 l-1 -1862 -1921 0 c-1057 0
-1937 0 -1954 -1 l-32 0 -1 -208 0 -209 2094 1 c2044 1 2094 1 2115 20 12 11
21 16 21 12 0 -16 64 61 80 97 17 37 18 145 16 2076 l-1 2036 -207 3 -208 2 0
-52z"/>
<path d="M5885 8426 c-133 -33 -271 -141 -327 -256 -61 -125 -59 -60 -56
-1411 2 -777 7 -1240 13 -1249 5 -8 10 -19 11 -25 4 -22 34 -84 44 -90 6 -4 8
-10 5 -15 -9 -15 132 -148 185 -175 128 -65 19 -60 1380 -60 1343 0 1272 -3
1392 57 91 45 190 152 228 248 16 39 16 38 29 100 7 28 10 500 10 1250 -1
1309 2 1255 -56 1367 -15 29 -38 65 -51 80 -13 16 -29 35 -36 44 -12 17 -111
85 -156 107 -88 42 -83 42 -1355 41 -926 -1 -1222 -4 -1260 -13z m891 -509 c3
-3 21 -1 40 3 20 5 34 4 34 -2 0 -5 5 -6 11 -2 6 4 89 6 183 5 94 -1 178 -2
186 -2 100 3 182 2 186 -2 3 -2 21 -1 40 3 20 5 34 4 34 -2 0 -5 5 -6 11 -2
13 8 287 7 344 -1 170 -25 317 -134 389 -287 36 -76 44 -141 46 -353 0 -115 2
-234 3 -263 1 -28 -1 -52 -5 -52 -4 0 -5 -6 -2 -14 9 -22 10 -305 1 -299 -4 2
-5 -6 -2 -19 5 -21 7 -71 5 -118 -1 -8 -1 -87 0 -175 0 -88 -1 -188 -4 -222
-8 -116 -73 -243 -164 -324 -56 -50 -167 -105 -237 -118 -27 -5 -356 -9 -732
-9 -750 0 -740 -1 -857 61 -51 27 -176 135 -176 152 0 3 -11 22 -23 43 -54 85
-73 204 -67 422 1 36 2 72 2 80 -1 8 -1 188 0 400 0 212 0 392 -1 400 -2 61 1
241 5 270 24 165 129 305 289 383 63 31 127 45 210 45 42 0 78 2 80 4 5 5 166
1 171 -5z"/>
<path d="M5517 4612 c-15 -3 -17 -25 -17 -211 l0 -208 699 1 c385 1 703 4 707
8 8 9 9 396 1 405 -6 5 -1361 10 -1390 5z"/>
<path d="M7563 4612 l-31 -3 -1 -208 -1 -208 523 1 522 1 3 208 2 207 -22 1
c-75 2 -969 3 -995 1z"/>
<path d="M388 3644 c-181 -43 -325 -186 -373 -371 -22 -84 -21 -2451 1 -2528
8 -27 16 -58 19 -68 9 -37 84 -148 123 -181 7 -6 18 -16 25 -22 43 -38 151
-90 212 -103 17 -3 588 -6 1270 -6 l1240 0 64 24 c117 45 227 145 279 253 54
111 52 64 50 1393 l-3 1230 -24 60 c-13 33 -29 67 -37 75 -7 8 -12 19 -12 23
0 5 -19 30 -41 57 -45 53 -160 134 -206 146 -17 4 -36 12 -44 18 -10 8 -360
11 -1250 13 -1018 1 -1246 -1 -1293 -13z m2009 -520 c90 -26 153 -60 212 -111
86 -75 155 -204 166 -311 2 -26 5 -345 5 -709 1 -719 0 -734 -55 -843 -52
-101 -163 -198 -275 -239 -72 -26 -185 -41 -235 -31 -5 1 -14 2 -18 1 -14 -2
-212 -3 -222 -1 -5 1 -14 2 -19 1 -13 -3 -119 -3 -131 -1 -5 1 -14 2 -19 1
-12 -3 -297 -3 -311 -1 -5 1 -30 1 -55 1 -107 -2 -176 -2 -185 -1 -5 1 -14 2
-18 1 -23 -4 -220 -2 -272 3 -110 11 -209 59 -295 146 -61 62 -115 147 -125
198 -2 12 -6 25 -8 30 -10 15 -20 119 -18 182 1 36 2 72 2 80 -1 8 -1 44 0 80
0 36 0 72 0 80 -3 184 1 998 5 1030 3 25 10 53 15 63 6 9 7 17 4 17 -8 0 56
124 66 128 5 2 9 8 9 14 0 21 114 120 171 149 113 56 113 56 866 57 566 0 701
-2 740 -14z"/>
<path d="M5939 3656 c-2 -2 -22 -7 -44 -10 -36 -5 -132 -43 -145 -56 -3 -3
-18 -14 -33 -23 -84 -54 -151 -143 -189 -252 l-28 -80 0 -1216 c0 -1060 2
-1223 16 -1275 41 -161 146 -281 304 -351 l65 -28 1234 -3 c1349 -3 1286 -5
1409 55 63 31 158 118 197 182 25 41 49 97 63 151 4 14 7 583 7 1265 0 1195
-1 1242 -19 1295 -11 30 -33 78 -49 105 -33 55 -142 165 -163 165 -8 0 -14 3
-14 8 0 7 -91 46 -140 59 -26 7 -2464 16 -2471 9z m1937 -527 c62 -15 69 -17
72 -19 1 -2 5 -3 10 -4 15 -3 87 -41 98 -51 7 -5 29 -23 49 -40 82 -65 157
-201 169 -303 5 -39 8 -134 6 -204 0 -10 -1 -47 -1 -83 0 -36 0 -71 0 -77 -1
-32 1 -477 2 -513 1 -22 1 -57 0 -77 -2 -63 -2 -67 -1 -253 1 -195 -8 -249
-57 -353 -37 -80 -140 -181 -223 -220 -81 -38 -260 -72 -260 -49 0 4 -4 6 -9
3 -8 -5 -134 -10 -156 -6 -5 1 -30 1 -55 1 -107 -2 -176 -2 -185 -1 -5 1 -14
2 -18 1 -14 -2 -212 -3 -222 -1 -5 1 -14 2 -19 1 -13 -3 -119 -3 -131 -1 -5 1
-14 2 -19 1 -11 -3 -298 -3 -306 -1 -22 6 -110 3 -110 -3 0 -5 -4 -6 -9 -3 -4
3 -26 8 -47 10 -163 21 -321 140 -390 294 -36 80 -42 135 -44 382 -1 135 -2
250 -2 255 0 6 0 37 1 70 1 33 2 225 2 426 0 201 2 376 4 390 3 13 8 40 11 59
22 117 135 257 263 324 39 20 71 35 71 32 0 -3 17 1 38 8 46 17 1403 21 1468
5z"/>
<path d="M4190 2010 l0 -1567 210 0 210 0 0 1567 0 1566 -210 0 -210 0 0
-1566z"/>
</g>
</svg>
